<svg xmlns="http://www.w3.org/2000/svg" viewBox="0 0 288.97 82.49"><defs><style>.a{fill:#e20613;}</style></defs><path d="M556,462.25v-82.5h16.11v82.5Z" transform="translate(-451.01 -379.75)"/><path d="M638.26,462.25l-4.86-14.6H604.09l-5,14.6H582.3l30-82.5h12.63l30.12,82.5ZM619,404.08l-10.43,30h20.51Z" transform="translate(-451.01 -379.75)"/><path class="a" d="M723.88,462.25V414.16l-15.75,31.29h-10.9l-15.87-31.29v48.09h-16.1v-82.5h15.87l21.55,44.61,21.43-44.61H740v82.5Z" transform="translate(-451.01 -379.75)"/><rect class="a" x="29.98" y="0.04" width="52.46" height="22.48" rx="11.24"/><path class="a" d="M492.23,439.74h-30a11.25,11.25,0,0,0,0,22.49h30a11.25,11.25,0,0,0,0-22.49Z" transform="translate(-451.01 -379.75)"/><path class="a" d="M522.21,409.77h-60a11.24,11.24,0,0,0,0,22.48h60a11.24,11.24,0,0,0,0-22.48Z" transform="translate(-451.01 -379.75)"/></svg>