<svg width="207" height="70" viewBox="0 0 207 70" fill="none" xmlns="http://www.w3.org/2000/svg">
<path d="M5.4291 7.20203V17.0229C5.4291 18.0443 5.4291 18.9544 4.65398 19.8055C3.73231 20.8269 2.52403 20.9054 1.79125 20.9054C1.18991 20.9152 0.589299 20.8592 0 20.7385L0 18.807C0.481312 19.0626 1.01898 19.1921 1.56327 19.1835C1.9922 19.198 2.41816 19.107 2.80411 18.9183C3.61506 18.5026 3.61506 17.7235 3.61506 16.2994V7.20203H5.4291Z" fill="white"/>
<path d="M16.0269 16.5155H10.9561L9.46772 20.6075H7.58203L12.6529 7.23474H14.5028L19.3424 20.6075H17.4762L16.0269 16.5155ZM15.4993 15.0194L13.5453 9.45426L11.5097 15.0194H15.4993Z" fill="white"/>
<path d="M32.3144 7.23438V20.6071H30.712L23.42 9.73215L23.5731 20.6071H21.9121V7.23438H23.5698L30.7902 17.9555L30.712 7.23438H32.3144Z" fill="white"/>
<path d="M46.2303 7.20203V15.756C46.238 16.3421 46.1812 16.9273 46.0609 17.5009C45.6831 19.1115 44.198 20.9316 41.0878 20.9316C40.1107 20.9316 38.2608 20.781 36.9972 19.1508C36.1114 18.0148 36.1309 17.0098 36.1309 15.5138V7.20203H37.9221V15.265C37.9059 16.4959 37.9059 17.5369 38.6028 18.3913C39.3942 19.3734 40.5569 19.4323 41.091 19.4323C42.6543 19.4323 43.8788 18.6728 44.2729 17.2161C44.4097 16.562 44.4666 15.8936 44.4423 15.2257V7.20203H46.2303Z" fill="white"/>
<path d="M56.607 16.5151H51.5362L50.0478 20.6071H48.1621L53.2297 7.23438H55.0796L59.9257 20.6071H58.0563L56.607 16.5151ZM56.0762 15.0191L54.1221 9.45389L52.0866 15.0191H56.0762Z" fill="white"/>
<path d="M64.2248 14.9241V20.6071H62.4922V7.23438H67.4165C69.2631 7.25402 70.3476 7.25402 71.3931 8.04951C72.3701 8.78935 72.787 9.90566 72.787 11.1398C72.787 14.2661 70.2825 14.7015 69.6376 14.8161L73.3732 20.6104H71.2595L67.6542 14.9241H64.2248ZM64.2248 13.4477H67.7422C68.2883 13.4721 68.8353 13.4281 69.3706 13.3168C69.8623 13.2234 70.3027 12.9517 70.6083 12.5534C70.9139 12.1551 71.0633 11.6579 71.0283 11.1562C71.043 10.8041 70.9796 10.4531 70.8427 10.1287C70.7058 9.80429 70.4989 9.51453 70.2369 9.28039C69.5399 8.69441 68.6736 8.71406 67.6542 8.71406H64.2248V13.4477Z" fill="white"/>
<path d="M86.183 7.20215V17.023C86.183 18.0444 86.183 18.9545 85.4079 19.8056C84.483 20.827 83.2779 20.9056 82.5452 20.9056C81.943 20.9079 81.3423 20.8442 80.7539 20.7157V18.7842C81.2348 19.0409 81.7728 19.1705 82.3172 19.1607C82.7472 19.1755 83.1743 19.0845 83.5613 18.8955C84.3722 18.4798 84.3722 17.7007 84.3722 16.2766V7.20215H86.183Z" fill="white"/>
<path d="M96.7796 16.5155H91.7087L90.2138 20.6075H88.3281L93.4055 7.23474H95.2554L100.098 20.6075H98.2288L96.7796 16.5155ZM96.252 15.0194L94.2979 9.45426L92.2591 15.0194H96.252Z" fill="white"/>
<path d="M111.683 14.489H104.447V20.6074H102.672V7.2019H104.447V12.9177H111.683V7.2019H113.475V20.6074H111.683V14.489Z" fill="white"/>
<path d="M121.434 7.20203V17.0229C121.434 18.0443 121.434 18.9544 120.662 19.8055C119.74 20.8269 118.532 20.9054 117.796 20.9054C117.195 20.9074 116.595 20.8438 116.008 20.7156V18.7841C116.487 19.049 117.025 19.1875 117.571 19.1868C118.001 19.2016 118.428 19.1105 118.815 18.9216C119.626 18.5059 119.626 17.7267 119.626 16.3027V7.20203H121.434Z" fill="white"/>
<path d="M132.031 16.5151H126.961L125.472 20.6071H123.59L128.644 7.23438H130.494L135.334 20.6071H133.471L132.031 16.5151ZM131.504 15.0191L129.55 9.45389L127.518 15.0191H131.504Z" fill="white"/>
<path d="M25.748 35.8889C25.547 37.2231 25.0579 38.4969 24.315 39.6209C24.5264 39.9122 24.8005 40.1518 25.1168 40.3219C25.4332 40.4919 25.7836 40.588 26.142 40.603C26.3255 40.5981 26.5084 40.5795 26.6892 40.5473V42.1186C26.4592 42.1694 26.2244 42.1946 25.989 42.1939C25.4532 42.2006 24.9234 42.0808 24.4421 41.8443C23.9607 41.6078 23.5413 41.2611 23.2174 40.8321C22.2208 41.6669 21.1689 42.2299 19.8857 42.2299C19.4043 42.2398 18.9259 42.1515 18.4795 41.9704C18.033 41.7893 17.6276 41.5191 17.2879 41.1761C16.9482 40.8331 16.6812 40.4245 16.503 39.9749C16.3248 39.5253 16.2391 39.044 16.2511 38.5602C16.243 38.1086 16.3124 37.659 16.4563 37.2311C16.7924 36.3341 17.4082 35.5704 18.2117 35.0542C18.3615 34.9429 19.1887 34.4878 19.3223 34.3536C18.811 32.9689 18.7002 32.6677 18.7002 31.8918C18.7002 30.111 19.9443 28.7852 21.6802 28.7852C23.2044 28.7852 24.4322 29.8655 24.4322 31.4368C24.4322 33.3715 22.6051 34.3831 21.5304 34.9789C22.1134 36.1345 22.7354 37.2704 23.4324 38.3703C23.8379 37.5873 24.1359 36.7525 24.3182 35.8889H25.748ZM17.8307 38.3703C17.8307 39.3524 18.5862 40.7568 20.1495 40.7568C20.9756 40.7202 21.7568 40.3691 22.3348 39.7747C21.4744 38.4456 20.682 37.0733 19.9606 35.6631C18.7947 36.213 17.8307 37.1002 17.8307 38.3703ZM22.9211 31.2469C22.9295 31.0777 22.9035 30.9085 22.8447 30.7497C22.7859 30.5909 22.6955 30.4458 22.5791 30.3233C22.4627 30.2008 22.3227 30.1034 22.1676 30.037C22.0124 29.9707 21.8455 29.9368 21.677 29.9375C20.98 29.9375 20.2244 30.4874 20.2244 31.5743C20.2902 32.3029 20.5006 33.0108 20.8432 33.6563C21.9212 33.1816 22.9211 32.3861 22.9211 31.2469Z" fill="white"/>
<path d="M37.0367 36.3798V42.0432H35.3203V28.6737H41.0686C41.7795 28.6386 42.4914 28.7148 43.179 28.8996C44.7423 29.4496 45.4588 30.9063 45.4588 32.4613C45.4588 33.9181 44.7814 35.6236 43.0096 36.1736C42.3158 36.3536 41.5984 36.4243 40.8829 36.3831L37.0367 36.3798ZM37.0367 34.8085H40.7494C41.7655 34.8085 42.4625 34.8085 43.0683 34.2029C43.51 33.7185 43.744 33.0787 43.7196 32.422C43.7377 32.1035 43.6844 31.7849 43.5638 31.4897C43.4432 31.1945 43.2583 30.9303 43.0227 30.7165C42.4364 30.2254 41.7786 30.2058 41.1598 30.2058H37.0367V34.8085Z" fill="white"/>
<path d="M54.2034 37.9546H49.1358L47.6474 42.0466H45.7617L50.8293 28.6738H52.6759L57.5188 42.0466H55.6527L54.2034 37.9546ZM53.6758 36.4585L51.7217 30.8934L49.6862 36.4585H53.6758Z" fill="white"/>
<path d="M61.8244 36.3603V42.0433H60.0918V28.6738H65.0291C66.8757 28.6902 67.9603 28.6902 69.0057 29.4857C69.9827 30.2255 70.3996 31.3418 70.3996 32.5727C70.3996 35.699 67.8919 36.1344 67.2503 36.249L70.9989 42.0466H68.8884L65.2701 36.3636L61.8244 36.3603ZM61.8244 34.8839H65.3516C65.8978 34.9076 66.4449 34.8625 66.98 34.7497C67.4714 34.657 67.9118 34.386 68.2174 33.9882C68.523 33.5905 68.6726 33.0937 68.6377 32.5924C68.6517 32.2401 68.5877 31.889 68.4503 31.5646C68.3129 31.2402 68.1054 30.9505 67.843 30.7166C67.1493 30.1273 66.2797 30.147 65.2604 30.147H61.8244V34.8839Z" fill="white"/>
<path d="M78.163 30.2256V42.0467H76.3718V30.2256H72.3789V28.6543H82.1493V30.2256H78.163Z" fill="white"/>
<path d="M95.1171 28.6738V42.0466H93.5148L86.2227 31.1716L86.3726 42.0433H84.7148V28.6738H86.3726L93.5897 39.395L93.5148 28.6738H95.1171Z" fill="white"/>
<path d="M100.718 35.9444V40.4915H108.404V42.0432H99.0078V28.6737H108.186V30.245H100.718V34.3731H107.199V35.9444H100.718Z" fill="white"/>
<path d="M112.838 36.3603V42.0433H111.105V28.6738H116.043C117.889 28.6902 118.974 28.6902 120.019 29.4857C120.996 30.2255 121.417 31.3418 121.417 32.5727C121.417 35.699 118.909 36.1344 118.267 36.249L122 42.0466H119.886L116.268 36.3603H112.838ZM112.838 34.8839H116.362C116.908 34.9076 117.455 34.8625 117.99 34.7497C118.482 34.6576 118.923 34.3868 119.229 33.9889C119.534 33.591 119.684 33.0939 119.648 32.5924C119.662 32.2407 119.599 31.8901 119.463 31.5659C119.326 31.2416 119.121 30.9516 118.86 30.7166C118.156 30.1273 117.297 30.147 116.274 30.147H112.838V34.8839Z" fill="white"/>
<path d="M129.091 35.8724C127.17 35.4763 124.343 34.8314 124.343 32.0651C124.341 31.5667 124.451 31.0743 124.663 30.624C124.876 30.1736 125.186 29.7768 125.571 29.4626C126.753 28.438 128.205 28.3267 129.13 28.3267C130.055 28.3267 131.504 28.4216 132.713 29.3087C134.035 30.2908 134.299 31.6396 134.432 32.4547L132.641 32.5693C132.646 32.1412 132.552 31.7178 132.365 31.333C132.179 30.9481 131.905 30.6125 131.566 30.353C130.862 29.8884 130.03 29.6593 129.189 29.6983C127.59 29.6983 126.176 30.353 126.176 31.8C126.176 33.2469 127.645 33.6168 128.782 33.882L130.251 34.2585C130.962 34.3987 131.661 34.5958 132.341 34.8477C134.338 35.6825 134.641 37.2899 134.641 38.1803C134.654 38.8207 134.505 39.454 134.208 40.0208C133.912 40.5876 133.477 41.0695 132.944 41.4212C131.661 42.292 130.133 42.3673 129.326 42.3673C128.117 42.3673 123.994 42.1774 123.691 37.7645L125.597 37.519C125.586 38.0001 125.677 38.4781 125.862 38.9219C126.047 39.3657 126.323 39.7655 126.671 40.0954C127.444 40.7161 128.415 41.0337 129.404 40.9891C131.29 40.9891 132.723 40.0593 132.723 38.3178C132.723 36.7628 131.498 36.3536 130.199 36.0819L129.091 35.8724Z" fill="white"/>
<path d="M4.2329 50.535V57.8909H3.25586V50.535H4.2329Z" fill="white"/>
<path d="M6.63973 52.9837V53.6875C6.79232 53.4177 7.01436 53.1942 7.28256 53.0404C7.55075 52.8866 7.85519 52.8082 8.16392 52.8135C8.51917 52.7983 8.8694 52.9019 9.15989 53.108C9.45038 53.3141 9.66476 53.6111 9.76953 53.9527C9.84318 54.2844 9.87059 54.6249 9.85095 54.9642V57.8909H9.03674V55.0985C9.05937 54.8267 9.04181 54.5531 8.98463 54.2866C8.9069 54.0751 8.76294 53.8946 8.57441 53.7724C8.38587 53.6502 8.16296 53.5929 7.9392 53.609C7.76654 53.604 7.59472 53.6349 7.43446 53.6997C7.27421 53.7644 7.12895 53.8617 7.00775 53.9854C6.8703 54.1311 6.76661 54.3056 6.70412 54.4963C6.64162 54.6871 6.62186 54.8893 6.64624 55.0886V57.8909H5.8125V52.9804L6.63973 52.9837Z" fill="white"/>
<path d="M12.5522 52.9836H13.4446V53.6874H12.5522V56.4994C12.5522 57.0822 12.5522 57.3342 12.904 57.3342C13.0884 57.3202 13.2702 57.2817 13.4446 57.2196V57.9071C13.1809 57.9536 12.9143 57.981 12.6467 57.989C11.6924 57.989 11.6924 57.5208 11.7022 56.8726V53.6874H10.9238V52.9999H11.7022V51.4482H12.5522V52.9836Z" fill="white"/>
<path d="M18.9886 56.3816C18.8608 56.8678 18.573 57.2962 18.172 57.597C17.771 57.8978 17.2806 58.0532 16.7805 58.038C15.3279 58.038 14.3867 57.056 14.3867 55.393C14.3867 53.5368 15.7122 52.8297 16.7512 52.8297C17.2549 52.8177 17.7465 52.9859 18.1383 53.3042C18.5302 53.6226 18.7969 54.0704 18.8909 54.568C18.96 54.8972 18.9917 55.2333 18.9853 55.5697H15.2758C15.2563 56.3914 15.6894 57.4128 16.8521 57.4128C17.5882 57.4128 18.0018 56.9217 18.1549 56.267L18.9886 56.3816ZM18.0865 54.9739C18.0148 53.6808 17.0899 53.4615 16.686 53.4615C15.9826 53.4615 15.3833 53.982 15.2954 54.9739H18.0865Z" fill="white"/>
<path d="M21.0714 50.535V57.8909H20.2734V50.535H21.0714Z" fill="white"/>
<path d="M23.449 50.535V57.8909H22.6348V50.535H23.449Z" fill="white"/>
<path d="M29.3109 56.3817C29.1831 56.868 28.8952 57.2964 28.4943 57.5971C28.0933 57.8979 27.6028 58.0534 27.1027 58.0382C25.6502 58.0382 24.709 57.0561 24.709 55.3931C24.709 53.537 26.0345 52.8298 27.0734 52.8298C27.5787 52.8164 28.0722 52.9843 28.4655 53.3035C28.8588 53.6226 29.1262 54.0721 29.2197 54.5714C29.2888 54.9007 29.3205 55.2367 29.3141 55.5731H25.6111C25.5916 56.3948 26.0247 57.4162 27.1874 57.4162C27.9235 57.4162 28.3371 56.9252 28.4901 56.2704L29.3109 56.3817ZM28.4087 54.9741C28.3371 53.681 27.4121 53.4617 27.0083 53.4617C26.3048 53.4617 25.7056 53.9822 25.6176 54.9741H28.4087Z" fill="white"/>
<path d="M35.044 56.1199C35.0025 56.4131 34.9075 56.6961 34.7639 56.9547C34.3601 57.7044 33.6664 58.0383 32.7642 58.0383C30.9697 58.0383 30.3281 56.6928 30.3281 55.4848C30.3281 54.0903 31.0642 52.8267 32.6926 52.8267C33.4807 52.8267 34.6467 53.1082 34.9528 54.4635L34.0409 54.5453C34.0072 54.2262 33.8537 53.932 33.6116 53.7227C33.3695 53.5134 33.0571 53.4049 32.7382 53.4192C31.3182 53.4192 31.2563 54.9709 31.2563 55.4096C31.2391 55.8683 31.352 56.3224 31.582 56.719C31.7077 56.9267 31.8862 57.0968 32.0992 57.2119C32.3122 57.327 32.5519 57.3829 32.7935 57.3737C33.9855 57.3737 34.1191 56.3916 34.1712 56.0086L35.044 56.1199Z" fill="white"/>
<path d="M37.3315 52.9836H38.2239V53.6874H37.3315V56.4994C37.3315 57.0822 37.3315 57.3342 37.6833 57.3342C37.8677 57.3202 38.0495 57.2817 38.2239 57.2196V57.9071C37.9602 57.9537 37.6936 57.981 37.426 57.989C36.4717 57.989 36.4717 57.5208 36.4815 56.8726V53.6874H35.7031V52.9999H36.475V51.4482H37.325L37.3315 52.9836Z" fill="white"/>
<path d="M39.4375 52.9836H40.255V55.7859C40.2414 56.0119 40.2479 56.2387 40.2745 56.4635C40.2874 56.579 40.323 56.6909 40.3793 56.7924C40.4355 56.894 40.5113 56.9834 40.6022 57.0552C40.6931 57.1271 40.7974 57.1801 40.9088 57.2112C41.0203 57.2422 41.1368 57.2507 41.2515 57.2361C41.4563 57.2433 41.66 57.2048 41.8481 57.1233C42.0362 57.0417 42.204 56.9193 42.3393 56.7647C42.6389 56.4111 42.6389 56.0248 42.6389 55.4552V52.9967H43.4564V57.9072H42.665V57.1575C42.4789 57.4287 42.2297 57.65 41.9391 57.8023C41.6485 57.9547 41.3252 58.0334 40.9975 58.0316C40.774 58.0447 40.5505 58.0064 40.3439 57.9196C40.1374 57.8328 39.9532 57.6998 39.8055 57.5307C39.4538 57.1248 39.4538 56.6959 39.4538 55.8743L39.4375 52.9836Z" fill="white"/>
<path d="M47.9567 54.9544V54.83C47.9567 54.3194 47.9567 53.4649 46.8592 53.4649C45.8137 53.4649 45.8137 54.2375 45.8137 54.4961L44.9441 54.4438C44.9589 54.1864 45.0254 53.9347 45.1396 53.7039C45.4294 53.1605 45.9994 52.8299 46.8298 52.8299C47.3378 52.8162 47.8374 52.9615 48.2596 53.2456C48.8002 53.6843 48.8002 54.2473 48.7872 54.9021V56.4963C48.7872 56.9645 48.7872 57.2034 49.1389 57.2034C49.2316 57.2043 49.3235 57.1865 49.4092 57.151V57.8712C49.2412 57.9222 49.0669 57.9498 48.8914 57.9531C48.787 57.9664 48.6809 57.9576 48.5801 57.9272C48.4792 57.8969 48.3858 57.8458 48.3058 57.777C48.2257 57.7083 48.1609 57.6235 48.1154 57.5281C48.0698 57.4327 48.0446 57.3288 48.0414 57.2231C47.8366 57.4721 47.58 57.673 47.2897 57.8116C46.9993 57.9501 46.6823 58.023 46.3609 58.0251C45.4066 58.0251 44.7031 57.4522 44.7031 56.6174C44.7019 56.3546 44.7778 56.0973 44.9213 55.8776C45.2014 55.4619 45.7193 55.1279 47.1816 55.0134L47.9567 54.9544ZM46.6833 55.7139C45.7714 55.9103 45.615 56.2573 45.615 56.6011C45.615 56.9972 45.9407 57.3311 46.5367 57.3311C46.8025 57.3526 47.0687 57.2937 47.3009 57.1618C47.533 57.03 47.7206 56.8312 47.8395 56.5913C47.9632 56.3195 47.973 56.205 47.973 55.488C47.6473 55.5371 47.2239 55.5993 46.6833 55.7139Z" fill="white"/>
<path d="M51.2432 50.5352V57.891H50.4453V50.5352H51.2432Z" fill="white"/>
<path d="M56.8703 54.7743V57.8908H55.9258V50.535H59.0881C59.4798 50.5153 59.8721 50.5573 60.2508 50.6594C60.6413 50.809 60.9738 51.0805 61.1994 51.434C61.4251 51.7875 61.5321 52.2044 61.5047 52.6236C61.5047 53.4256 61.1302 54.3651 60.1564 54.6663C59.7738 54.7654 59.3783 54.804 58.9839 54.7809L56.8703 54.7743ZM56.8703 53.9101H58.9123C59.4724 53.9101 59.8568 53.9101 60.1857 53.5827C60.4271 53.3147 60.5535 52.9618 60.5374 52.6006C60.5474 52.4251 60.518 52.2496 60.4515 52.087C60.385 51.9244 60.283 51.7788 60.1531 51.6611C59.8581 51.4418 59.4922 51.3413 59.1272 51.3796H56.867L56.8703 53.9101Z" fill="white"/>
<path d="M63.3279 52.9837V53.8806C63.4862 53.5749 63.729 53.3217 64.0272 53.1516C64.3253 52.9814 64.6661 52.9015 65.0084 52.9215V53.8184C64.9002 53.8063 64.7915 53.7997 64.6827 53.7988C64.4598 53.7863 64.2377 53.8337 64.0391 53.9361C63.8404 54.0385 63.6725 54.1923 63.5526 54.3815C63.3714 54.7681 63.2993 55.1973 63.3442 55.6222V57.8941H62.5137V52.9837H63.3279Z" fill="white"/>
<path d="M68.0969 58.0382C66.4066 58.0382 65.6934 56.768 65.6934 55.4749C65.6934 54.3815 66.234 52.8298 68.1295 52.8298C69.7579 52.8298 70.4939 54.0902 70.4841 55.4487C70.4711 56.9219 69.5885 58.0382 68.0969 58.0382ZM69.5266 54.7449C69.341 53.7628 68.7092 53.4944 68.149 53.4944C67.0384 53.4944 66.5955 54.3586 66.5955 55.4847C66.5955 56.5159 67.0221 57.3704 68.0871 57.3704C69.4647 57.3704 69.569 55.9332 69.5787 55.4324C69.5893 55.2019 69.5718 54.9711 69.5266 54.7449Z" fill="white"/>
<path d="M71.7676 52.9836H72.585V53.6874C72.7158 53.5176 72.8692 53.3666 73.041 53.2389C73.4222 52.9824 73.8688 52.8414 74.3274 52.833C75.3859 52.833 76.5258 53.6776 76.5258 55.4519C76.5258 56.8465 75.78 58.0479 74.246 58.0479C73.934 58.0617 73.623 58.003 73.3372 57.8764C73.0514 57.7498 72.7985 57.5587 72.5981 57.3179V60.2249H71.7806L71.7676 52.9836ZM72.585 55.5141C72.585 56.578 73.1126 57.3048 74.1092 57.3048C74.4107 57.3152 74.7089 57.2391 74.969 57.0855C75.2393 56.9087 75.6758 56.4307 75.6758 55.429C75.6758 54.2636 75.0244 53.563 74.0897 53.6056C73.155 53.6481 72.585 54.4011 72.585 55.5141Z" fill="white"/>
<path d="M82.1429 56.3817C82.0151 56.868 81.7273 57.2964 81.3263 57.5971C80.9253 57.8979 80.4349 58.0534 79.9348 58.0382C78.4822 58.0382 77.541 57.0561 77.541 55.3931C77.541 53.537 78.8665 52.8298 79.9055 52.8298C80.4107 52.8164 80.9043 52.9843 81.2976 53.3035C81.6909 53.6226 81.9582 54.0721 82.0517 54.5714C82.1209 54.9007 82.1525 55.2367 82.1461 55.5731H78.4334C78.4138 56.3948 78.847 57.4162 80.0097 57.4162C80.7457 57.4162 81.1593 56.9252 81.3124 56.2704L82.1429 56.3817ZM81.2408 54.9741C81.1691 53.681 80.2442 53.4617 79.8403 53.4617C79.1369 53.4617 78.5376 53.9822 78.4497 54.9741H81.2408Z" fill="white"/>
<path d="M84.2478 52.9837V53.8806C84.4061 53.5749 84.649 53.3217 84.9471 53.1516C85.2453 52.9814 85.586 52.9015 85.9283 52.9215V53.8184C85.8202 53.8063 85.7115 53.7997 85.6026 53.7988C85.3798 53.7863 85.1576 53.8337 84.959 53.9361C84.7604 54.0385 84.5925 54.1923 84.4725 54.3815C84.2914 54.7681 84.2193 55.1973 84.2641 55.6222V57.8941H83.4336V52.9837H84.2478Z" fill="white"/>
<path d="M87.9995 52.9836H88.8919V53.6874H87.9995V56.4994C87.9995 57.0822 87.9995 57.3342 88.3512 57.3342C88.5346 57.32 88.7153 57.2814 88.8886 57.2196V57.9071C88.6249 57.9536 88.3583 57.981 88.0907 57.989C87.1364 57.989 87.1364 57.5208 87.1462 56.8726V53.6874H86.3711V52.9999H87.1495V51.4482H87.9995V52.9836Z" fill="white"/>
<path d="M93.8355 52.9836L91.7837 58.7878C91.4319 59.7699 91.1942 60.3198 90.279 60.3198C90.0229 60.3195 89.7683 60.2809 89.5234 60.2053V59.4654C89.6945 59.518 89.8722 59.5455 90.051 59.5473C90.6535 59.5473 90.7871 59.1937 91.0281 58.5161L91.2365 57.9235L89.5625 52.9836H90.4451L91.6697 56.8793L92.9724 52.9836H93.8355Z" fill="white"/>
<path d="M104.871 55.2229C104.697 56.0482 104.241 56.7861 103.581 57.3078C102.922 57.8295 102.101 58.1019 101.262 58.0775C98.8456 58.0775 97.6797 56.2541 97.6797 54.2114C97.6797 52.1686 98.8717 50.3452 101.392 50.3452C103.913 50.3452 104.545 52.1064 104.721 52.5975L103.744 52.807C103.661 52.504 103.512 52.2233 103.307 51.9853C103.072 51.7071 102.777 51.4858 102.445 51.3379C102.113 51.19 101.752 51.1192 101.389 51.1309C101.006 51.1219 100.626 51.2007 100.278 51.3612C99.93 51.5217 99.6228 51.7598 99.3797 52.0573C98.9443 52.669 98.7284 53.4112 98.7675 54.1623C98.7675 55.9857 99.6891 57.2689 101.373 57.2689C102.461 57.2689 103.571 56.6535 103.799 55.1018L104.871 55.2229Z" fill="white"/>
<path d="M107.984 58.0382C106.293 58.0382 105.58 56.768 105.58 55.4749C105.58 54.3815 106.121 52.8298 108.016 52.8298C109.645 52.8298 110.381 54.0902 110.371 55.4487C110.358 56.9219 109.475 58.0382 107.984 58.0382ZM109.43 54.7449C109.244 53.7628 108.612 53.4944 108.052 53.4944C106.941 53.4944 106.499 54.3586 106.499 55.4847C106.499 56.5159 106.925 57.3704 107.99 57.3704C109.368 57.3704 109.472 55.9332 109.482 55.4324C109.492 55.2019 109.475 54.9711 109.43 54.7449Z" fill="white"/>
<path d="M111.662 52.9836H112.48V55.7859C112.466 56.0119 112.472 56.2387 112.499 56.4635C112.512 56.579 112.548 56.6909 112.604 56.7924C112.66 56.894 112.736 56.9834 112.827 57.0552C112.918 57.1271 113.022 57.1801 113.133 57.2112C113.245 57.2422 113.361 57.2507 113.476 57.2361C113.682 57.2452 113.888 57.2079 114.078 57.1269C114.268 57.0459 114.437 56.9233 114.574 56.768C114.873 56.4144 114.873 56.0281 114.873 55.4585V53H115.691V57.9104H114.873V57.1608C114.687 57.4319 114.438 57.6533 114.147 57.8056C113.857 57.9579 113.534 58.0366 113.206 58.0348C112.982 58.048 112.759 58.0097 112.552 57.9229C112.346 57.8361 112.162 57.7031 112.014 57.534C111.662 57.1281 111.662 56.6992 111.662 55.8775V52.9836Z" fill="white"/>
<path d="M118.099 52.9836V53.6875C118.251 53.4176 118.473 53.1941 118.742 53.0403C119.01 52.8865 119.314 52.8081 119.623 52.8134C119.976 52.7974 120.325 52.8991 120.616 53.1027C120.906 53.3063 121.121 53.6004 121.229 53.9395C121.302 54.2713 121.33 54.6117 121.31 54.9511V57.8777H120.502V55.0853C120.525 54.8136 120.507 54.54 120.45 54.2734C120.372 54.0619 120.228 53.8815 120.04 53.7593C119.851 53.6371 119.628 53.5797 119.405 53.5958C119.232 53.5909 119.06 53.6217 118.9 53.6865C118.74 53.7513 118.594 53.8486 118.473 53.9723C118.336 54.118 118.232 54.2925 118.17 54.4832C118.107 54.6739 118.087 54.8762 118.112 55.0755V57.8777H117.281V52.9673L118.099 52.9836Z" fill="white"/>
<path d="M124.485 55.7236C123.697 55.537 122.733 55.3177 122.733 54.2963C122.733 53.3994 123.489 52.8363 124.619 52.8363C125.554 52.8363 126.547 53.2848 126.713 54.4404L125.821 54.555C125.836 54.4035 125.812 54.2507 125.75 54.1117C125.688 53.9727 125.591 53.8524 125.469 53.7627C125.195 53.5629 124.863 53.4604 124.524 53.4714C123.873 53.4714 123.547 53.8577 123.547 54.1916C123.547 54.6597 124.075 54.807 124.72 54.9642L125.186 55.0787C125.765 55.213 126.814 55.465 126.814 56.4962C126.814 57.2983 126.107 58.0479 124.762 58.0479C124.229 58.07 123.702 57.9321 123.248 57.6518C123.041 57.4931 122.869 57.2925 122.744 57.063C122.619 56.8335 122.543 56.5802 122.521 56.3194L123.453 56.1721C123.433 56.3494 123.455 56.5289 123.518 56.6958C123.581 56.8626 123.683 57.012 123.814 57.1313C124.095 57.3412 124.443 57.4412 124.791 57.4128C125.518 57.4128 125.941 57.1313 125.941 56.601C125.941 56.0706 125.514 55.9463 124.925 55.8186L124.485 55.7236Z" fill="white"/>
<path d="M132.383 56.3817C132.255 56.868 131.968 57.2964 131.567 57.5971C131.166 57.8979 130.675 58.0534 130.175 58.0382C128.722 58.0382 127.781 57.0561 127.781 55.3931C127.781 53.537 129.107 52.8298 130.146 52.8298C130.651 52.8164 131.144 52.9843 131.538 53.3035C131.931 53.6226 132.198 54.0721 132.292 54.5714C132.361 54.9007 132.393 55.2367 132.386 55.5731H128.674C128.654 56.3948 129.087 57.4162 130.25 57.4162C130.986 57.4162 131.4 56.9252 131.553 56.2704L132.383 56.3817ZM131.481 54.9741C131.409 53.681 130.484 53.4617 130.081 53.4617C129.377 53.4617 128.778 53.9822 128.69 54.9741H131.481Z" fill="white"/>
<path d="M134.464 50.535V57.8909H133.666V50.535H134.464Z" fill="white"/>
<path d="M160.779 10.8324V32.7003C160.779 43.5327 159.151 49.8999 153.168 55.3178C150.172 58.0709 147.179 59.7044 144.782 60.3919L143.668 57.8156C148.462 55.5797 150.944 51.7921 151.882 46.8063C152.566 42.5081 152.738 37.4307 152.738 30.2974V10.8324C152.738 3.61081 152.054 3.00846 145.124 2.49123V0H160.779V10.8324Z" fill="white"/>
<path d="M178.958 10.8324V42.3084C178.958 53.1441 177.33 59.508 171.344 64.9259C168.348 67.6757 165.355 69.3093 162.961 69.9967L161.863 67.4204C166.654 65.1845 169.136 61.4034 170.077 56.4144C170.761 52.1129 170.933 47.0388 170.933 39.9023V10.8324C170.933 3.61081 170.25 3.00846 163.319 2.49123V0H178.975L178.958 10.8324Z" fill="white"/>
<path d="M185.407 30.0126C190.539 30.0126 197.301 27.1744 197.301 16.0801C197.301 6.70766 191.569 2.83496 184.807 2.83496C184.547 2.83496 184.293 2.83496 184.049 2.85133C183.723 2.85133 183.397 2.89061 183.127 2.92335V0H186.179C192.337 0 197.216 1.03119 200.639 3.5257C204.062 6.10532 206.286 10.1482 206.286 15.8214C206.286 27.0009 197.903 32.422 189.52 33.4532C188.321 33.5936 187.111 33.6144 185.908 33.5154C185.4 33.4499 184.912 33.3485 184.912 33.3485L185.407 30.0126Z" fill="white"/>
</svg>
