<svg width="333" height="113" viewBox="0 0 333 113" fill="none" xmlns="http://www.w3.org/2000/svg">
<g clip-path="url(#clip0_5_2)">
<path d="M8.76413 11.6261V27.4798C8.76413 29.1286 8.76413 30.5977 7.51286 31.9717C6.02501 33.6204 4.0745 33.7473 2.89158 33.7473C1.92085 33.763 0.951297 33.6727 0 33.4778L0 30.3599C0.776976 30.7725 1.64492 30.9815 2.52356 30.9676C3.21597 30.991 3.9036 30.8441 4.52664 30.5395C5.83574 29.8684 5.83574 28.6107 5.83574 26.3119V11.6261H8.76413Z" fill="#052147"/>
<path d="M25.8718 26.6607H17.6859L15.2833 33.2664H12.2393L20.4251 11.6789H23.4113L31.2238 33.2664H28.2113L25.8718 26.6607ZM25.0201 24.2456L21.8656 15.2618L18.5797 24.2456H25.0201Z" fill="#052147"/>
<path d="M52.1643 11.6789V33.2664H49.5776L37.8063 15.711L38.0534 33.2664H35.3721V11.6789H38.0481L49.7038 28.9859L49.5776 11.6789H52.1643Z" fill="#052147"/>
<path d="M74.6293 11.6261V25.4346C74.6417 26.3808 74.55 27.3254 74.3559 28.2513C73.746 30.8513 71.3486 33.7895 66.3278 33.7895C64.7506 33.7895 61.7643 33.5465 59.7245 30.9147C58.2944 29.081 58.326 27.4586 58.326 25.0436V11.6261H61.2176V24.642C61.1913 26.629 61.1913 28.3094 62.3164 29.6887C63.5939 31.2741 65.4708 31.3692 66.333 31.3692C68.8566 31.3692 70.8334 30.1432 71.4695 27.7916C71.6903 26.7357 71.7821 25.6567 71.7429 24.5785V11.6261H74.6293Z" fill="#052147"/>
<path d="M91.3793 26.6607H83.1935L80.7909 33.2664H77.7468L85.9274 11.6789H88.9136L96.7366 33.2664H93.7189L91.3793 26.6607ZM90.5224 24.2456L87.3679 15.2618L84.082 24.2456H90.5224Z" fill="#052147"/>
<path d="M103.676 24.0924V33.2664H100.879V11.6789H108.829C111.81 11.7106 113.56 11.7106 115.248 12.9948C116.825 14.1891 117.498 15.9911 117.498 17.9834C117.498 23.0302 113.455 23.733 112.414 23.918L118.444 33.2717H115.032L109.212 24.0924H103.676ZM103.676 21.709H109.354C110.236 21.7483 111.119 21.6773 111.983 21.4976C112.777 21.3468 113.488 20.9083 113.981 20.2654C114.474 19.6224 114.716 18.8198 114.659 18.0098C114.683 17.4415 114.58 16.8749 114.36 16.3512C114.139 15.8275 113.805 15.3597 113.382 14.9818C112.256 14.0358 110.858 14.0675 109.212 14.0675H103.676V21.709Z" fill="#052147"/>
<path d="M139.122 11.6261V27.4798C139.122 29.1286 139.122 30.5977 137.871 31.9717C136.378 33.6204 134.432 33.7473 133.249 33.7473C132.277 33.751 131.308 33.6483 130.358 33.4408V30.3229C131.134 30.7372 132.003 30.9464 132.881 30.9306C133.575 30.9545 134.265 30.8075 134.89 30.5025C136.199 29.8314 136.199 28.5737 136.199 26.2749V11.6261H139.122Z" fill="#052147"/>
<path d="M156.23 26.6607H148.044L145.631 33.2664H142.587L150.783 11.6789H153.769L161.587 33.2664H158.569L156.23 26.6607ZM155.378 24.2456L152.223 15.2618L148.932 24.2456H155.378Z" fill="#052147"/>
<path d="M180.288 23.3895H168.606V33.2664H165.74V11.6261H168.606V20.8529H180.288V11.6261H183.179V33.2664H180.288V23.3895Z" fill="#052147"/>
<path d="M196.028 11.6261V27.4798C196.028 29.1286 196.028 30.5977 194.782 31.9717C193.294 33.6204 191.344 33.7473 190.156 33.7473C189.185 33.7505 188.218 33.6477 187.269 33.4408V30.3229C188.042 30.7504 188.911 30.974 189.793 30.9729C190.487 30.9967 191.177 30.8498 191.801 30.5448C193.11 29.8737 193.11 28.6159 193.11 26.3172V11.6261H196.028Z" fill="#052147"/>
<path d="M213.136 26.6607H204.95L202.548 33.2664H199.509L207.668 11.6789H210.655L218.467 33.2664H215.46L213.136 26.6607ZM212.284 24.2456L209.13 15.2618L205.849 24.2456H212.284Z" fill="#052147"/>
<path d="M41.5651 57.9348C41.2407 60.0885 40.4511 62.1448 39.2518 63.9592C39.5931 64.4295 40.0356 64.8163 40.5462 65.0908C41.0569 65.3653 41.6226 65.5204 42.2012 65.5445C42.4975 65.5367 42.7927 65.5067 43.0845 65.4547V67.9913C42.7133 68.0732 42.3342 68.114 41.9541 68.1128C41.0893 68.1236 40.234 67.9303 39.457 67.5485C38.68 67.1667 38.0029 66.607 37.4801 65.9145C35.8713 67.262 34.1732 68.171 32.1017 68.171C31.3246 68.1869 30.5524 68.0444 29.8316 67.752C29.1109 67.4596 28.4566 67.0234 27.9082 66.4697C27.3598 65.9161 26.9288 65.2564 26.6411 64.5306C26.3534 63.8049 26.2151 63.028 26.2344 62.247C26.2213 61.518 26.3334 60.7922 26.5657 60.1014C27.1083 58.6534 28.1024 57.4206 29.3994 56.5872C29.6413 56.4075 30.9766 55.673 31.1922 55.4563C30.3668 53.2209 30.188 52.7347 30.188 51.4823C30.188 48.6075 32.1964 46.4672 34.9986 46.4672C37.459 46.4672 39.4411 48.2111 39.4411 50.7477C39.4411 53.8709 36.4917 55.5039 34.7567 56.4656C35.6978 58.3311 36.702 60.1649 37.8271 61.9405C38.4817 60.6764 38.9628 59.3288 39.2571 57.9348H41.5651ZM28.7843 61.9405C28.7843 63.5258 30.004 65.7929 32.5276 65.7929C33.8611 65.7338 35.1223 65.167 36.0553 64.2075C34.6663 62.062 33.3871 59.8467 32.2227 57.5701C30.3405 58.4579 28.7843 59.8901 28.7843 61.9405ZM37.0017 50.4412C37.0152 50.1681 36.9733 49.895 36.8784 49.6386C36.7835 49.3823 36.6376 49.1481 36.4497 48.9502C36.2617 48.7524 36.0357 48.5952 35.7853 48.4881C35.5349 48.381 35.2654 48.3263 34.9933 48.3274C33.8682 48.3274 32.6485 49.2152 32.6485 50.9697C32.7547 52.1459 33.0943 53.2887 33.6474 54.3307C35.3876 53.5644 37.0017 52.2803 37.0017 50.4412Z" fill="#052147"/>
<path d="M59.7875 58.7275V67.8698H57.0168V46.2876H66.2962C67.4437 46.2309 68.5931 46.3539 69.703 46.6522C72.2266 47.54 73.3832 49.8917 73.3832 52.4018C73.3832 54.7535 72.2897 57.5067 69.4296 58.3945C68.3095 58.6851 67.1514 58.7992 65.9965 58.7327L59.7875 58.7275ZM59.7875 56.1909H65.781C67.4213 56.1909 68.5464 56.1909 69.5243 55.2132C70.2373 54.4313 70.6151 53.3984 70.5757 52.3384C70.6049 51.8241 70.5189 51.3098 70.3242 50.8334C70.1295 50.3569 69.831 49.9303 69.4507 49.5851C68.5043 48.7925 67.4423 48.7607 66.4434 48.7607H59.7875V56.1909Z" fill="#052147"/>
<path d="M87.4993 61.2693H79.3188L76.9161 67.875H73.8721L82.0526 46.2876H85.0336L92.8514 67.875H89.8389L87.4993 61.2693ZM86.6476 58.8543L83.4932 49.8705L80.2073 58.8543H86.6476Z" fill="#052147"/>
<path d="M99.8016 58.6957V67.8698H97.0046V46.2876H104.975C107.956 46.314 109.707 46.314 111.394 47.5981C112.971 48.7925 113.644 50.5945 113.644 52.5815C113.644 57.6283 109.596 58.3311 108.56 58.5161L114.612 67.875H111.205L105.364 58.701L99.8016 58.6957ZM99.8016 56.3124H105.495C106.377 56.3507 107.26 56.2779 108.124 56.0957C108.917 55.9461 109.628 55.5086 110.122 54.8665C110.615 54.2245 110.857 53.4225 110.8 52.6132C110.823 52.0445 110.719 51.4778 110.498 50.9541C110.276 50.4304 109.941 49.9628 109.517 49.5851C108.397 48.6339 106.994 48.6656 105.348 48.6656H99.8016V56.3124Z" fill="#052147"/>
<path d="M126.178 48.7925V67.875H123.287V48.7925H116.841V46.2559H132.613V48.7925H126.178Z" fill="#052147"/>
<path d="M153.548 46.2876V67.875H150.962L139.19 50.3197L139.432 67.8698H136.756V46.2876H139.432L151.083 63.5945L150.962 46.2876H153.548Z" fill="#052147"/>
<path d="M162.586 58.0246V65.3649H174.993V67.8698H159.826V46.2876H174.641V48.8242H162.586V55.488H173.048V58.0246H162.586Z" fill="#052147"/>
<path d="M182.154 58.6957V67.8698H179.357V46.2876H187.327C190.308 46.314 192.059 46.314 193.747 47.5981C195.324 48.7925 196.002 50.5945 196.002 52.5815C196.002 57.6283 191.954 58.3311 190.918 58.5161L196.943 67.875H193.531L187.69 58.6957H182.154ZM182.154 56.3124H187.843C188.724 56.3506 189.607 56.2779 190.471 56.0957C191.265 55.9472 191.977 55.51 192.47 54.8676C192.964 54.2253 193.205 53.4228 193.147 52.6132C193.17 52.0454 193.068 51.4796 192.848 50.9561C192.628 50.4327 192.296 49.9645 191.875 49.5851C190.739 48.6339 189.351 48.6656 187.701 48.6656H182.154V56.3124Z" fill="#052147"/>
<path d="M208.389 57.9083C205.287 57.2689 200.723 56.2278 200.723 51.7624C200.721 50.9578 200.897 50.1629 201.24 49.4359C201.583 48.7089 202.084 48.0683 202.705 47.5611C204.614 45.9071 206.959 45.7274 208.452 45.7274C209.945 45.7274 212.284 45.8807 214.235 47.3128C216.369 48.8981 216.795 51.0754 217.011 52.3912L214.119 52.5762C214.128 51.8852 213.975 51.2017 213.674 50.5804C213.373 49.9592 212.931 49.4175 212.384 48.9986C211.248 48.2485 209.904 47.8786 208.546 47.9416C205.965 47.9416 203.683 48.9986 203.683 51.3343C203.683 53.6701 206.054 54.2673 207.889 54.6953L210.26 55.303C211.409 55.5295 212.537 55.8475 213.635 56.2543C216.858 57.6018 217.347 60.1966 217.347 61.634C217.368 62.6677 217.128 63.69 216.649 64.6051C216.17 65.5201 215.468 66.2979 214.608 66.8657C212.537 68.2714 210.071 68.3929 208.767 68.3929C206.817 68.3929 200.161 68.0864 199.672 60.9628L202.747 60.5665C202.731 61.3432 202.877 62.1147 203.176 62.8311C203.474 63.5475 203.92 64.1929 204.482 64.7254C205.73 65.7275 207.298 66.2402 208.893 66.1681C211.937 66.1681 214.251 64.6673 214.251 61.8559C214.251 59.3457 212.274 58.6852 210.176 58.2466L208.389 57.9083Z" fill="#052147"/>
<path d="M6.83455 81.5779V93.4524H5.25732V81.5779H6.83455Z" fill="#052147"/>
<path d="M10.7199 85.5308V86.667C10.9662 86.2314 11.3247 85.8705 11.7576 85.6223C12.1906 85.374 12.682 85.2475 13.1804 85.256C13.7539 85.2316 14.3192 85.3988 14.7882 85.7315C15.2571 86.0642 15.6032 86.5437 15.7723 87.095C15.8912 87.6306 15.9354 88.1802 15.9037 88.728V93.4524H14.5894V88.9446C14.6259 88.506 14.5976 88.0643 14.5053 87.6341C14.3798 87.2926 14.1474 87.0013 13.843 86.8041C13.5387 86.6068 13.1788 86.5142 12.8176 86.5401C12.5389 86.5322 12.2615 86.582 12.0028 86.6866C11.7441 86.7912 11.5096 86.9482 11.314 87.1479C11.0921 87.3831 10.9247 87.6648 10.8238 87.9726C10.723 88.2805 10.6911 88.607 10.7304 88.9288V93.4524H9.38452V85.5255L10.7199 85.5308Z" fill="#052147"/>
<path d="M20.262 85.5308H21.7025V86.667H20.262V91.2064C20.262 92.1471 20.262 92.554 20.8298 92.554C21.1276 92.5314 21.4211 92.4692 21.7025 92.369V93.4788C21.2769 93.5539 20.8464 93.5981 20.4145 93.6109C18.8741 93.6109 18.8741 92.8552 18.8898 91.8089V86.667H17.6333V85.5572H18.8898V83.0523H20.262V85.5308Z" fill="#052147"/>
<path d="M30.6507 91.0162C30.4444 91.8011 29.9797 92.4926 29.3325 92.9782C28.6852 93.4638 27.8934 93.7147 27.0861 93.6902C24.7413 93.6902 23.2219 92.1048 23.2219 89.4202C23.2219 86.4239 25.3617 85.2824 27.0388 85.2824C27.852 85.2631 28.6455 85.5345 29.2781 86.0484C29.9107 86.5623 30.3412 87.2853 30.4929 88.0885C30.6045 88.62 30.6556 89.1625 30.6454 89.7056H24.6572C24.6257 91.032 25.3249 92.6808 27.2018 92.6808C28.39 92.6808 29.0577 91.8881 29.3048 90.8312L30.6507 91.0162ZM29.1944 88.7438C29.0787 86.6564 27.5856 86.3023 26.9337 86.3023C25.7981 86.3023 24.8307 87.1426 24.6887 88.7438H29.1944Z" fill="#052147"/>
<path d="M34.0156 81.5779V93.4524H32.7275V81.5779H34.0156Z" fill="#052147"/>
<path d="M37.8534 81.5779V93.4524H36.5391V81.5779H37.8534Z" fill="#052147"/>
<path d="M47.3169 91.0162C47.1106 91.8011 46.646 92.4926 45.9987 92.9782C45.3515 93.4638 44.5597 93.7147 43.7524 93.6902C41.4076 93.6902 39.8882 92.1048 39.8882 89.4202C39.8882 86.4239 42.028 85.2824 43.7051 85.2824C44.5207 85.2607 45.3174 85.5318 45.9523 86.047C46.5872 86.5621 47.0188 87.2878 47.1697 88.0938C47.2813 88.6253 47.3324 89.1678 47.3222 89.7109H41.3445C41.3129 91.0373 42.0122 92.6861 43.8891 92.6861C45.0773 92.6861 45.745 91.8934 45.9921 90.8365L47.3169 91.0162ZM45.8606 88.7438C45.745 86.6564 44.2518 86.3023 43.5999 86.3023C42.4643 86.3023 41.497 87.1426 41.355 88.7438H45.8606Z" fill="#052147"/>
<path d="M56.5698 90.5934C56.5027 91.0667 56.3495 91.5235 56.1176 91.941C55.4657 93.1511 54.3459 93.6902 52.8896 93.6902C49.9927 93.6902 48.957 91.5182 48.957 89.5682C48.957 87.317 50.1452 85.2771 52.7739 85.2771C54.0462 85.2771 55.9284 85.7316 56.4226 87.9194L54.9505 88.0515C54.8961 87.5363 54.6483 87.0614 54.2575 86.7236C53.8667 86.3858 53.3624 86.2106 52.8475 86.2336C50.5553 86.2336 50.4554 88.7385 50.4554 89.4467C50.4276 90.1871 50.6099 90.9203 50.9811 91.5605C51.184 91.8957 51.4722 92.1704 51.8161 92.3562C52.1599 92.542 52.5468 92.6322 52.9369 92.6174C54.8611 92.6174 55.0767 91.032 55.1608 90.4137L56.5698 90.5934Z" fill="#052147"/>
<path d="M60.2659 85.5308H61.7065V86.667H60.2659V91.2064C60.2659 92.1471 60.2659 92.554 60.8337 92.554C61.1315 92.5313 61.4249 92.4692 61.7065 92.369V93.4788C61.2808 93.5539 60.8503 93.5981 60.4184 93.6109C58.878 93.6109 58.878 92.8552 58.8937 91.8089V86.667H57.6372V85.5572H58.8832V83.0523H60.2554L60.2659 85.5308Z" fill="#052147"/>
<path d="M63.6621 85.5308H64.9817V90.0544C64.9598 90.4192 64.9704 90.7853 65.0133 91.1483C65.0341 91.3348 65.0916 91.5153 65.1824 91.6793C65.2732 91.8433 65.3956 91.9875 65.5423 92.1035C65.6891 92.2196 65.8573 92.3051 66.0373 92.3553C66.2172 92.4054 66.4053 92.419 66.5905 92.3955C66.921 92.4071 67.2499 92.3449 67.5536 92.2133C67.8572 92.0817 68.128 91.884 68.3465 91.6345C68.8302 91.0637 68.8302 90.4402 68.8302 89.5206V85.5519H70.1498V93.4788H68.8722V92.2686C68.5717 92.7063 68.1695 93.0637 67.7003 93.3096C67.2312 93.5555 66.7095 93.6825 66.1804 93.6796C65.8196 93.7008 65.4588 93.639 65.1253 93.4989C64.7919 93.3587 64.4947 93.144 64.2562 92.8711C63.6884 92.2158 63.6884 91.5235 63.6884 90.1971L63.6621 85.5308Z" fill="#052147"/>
<path d="M77.4155 88.7121V88.5113C77.4155 87.6869 77.4155 86.3076 75.6438 86.3076C73.9561 86.3076 73.9561 87.5548 73.9561 87.9723L72.5524 87.8877C72.5762 87.4723 72.6835 87.066 72.8679 86.6934C73.3358 85.8162 74.2558 85.2824 75.5965 85.2824C76.4164 85.2604 77.2229 85.4949 77.9045 85.9536C78.7772 86.6617 78.7772 87.5706 78.7562 88.6276V91.2011C78.7562 91.9568 78.7562 92.3426 79.324 92.3426C79.4736 92.344 79.622 92.3153 79.7603 92.2581V93.4207C79.489 93.5029 79.2077 93.5474 78.9244 93.5528C78.7558 93.5742 78.5847 93.56 78.4219 93.5111C78.2591 93.4621 78.1082 93.3795 77.979 93.2686C77.8498 93.1576 77.7452 93.0208 77.6716 92.8668C77.5981 92.7128 77.5575 92.545 77.5522 92.3743C77.2217 92.7764 76.8075 93.1006 76.3388 93.3243C75.8701 93.548 75.3582 93.6657 74.8394 93.669C73.299 93.669 72.1634 92.7442 72.1634 91.3967C72.1613 90.9724 72.2838 90.557 72.5156 90.2024C72.9677 89.5312 73.8037 88.9922 76.1643 88.8072L77.4155 88.7121ZM75.3599 89.9381C73.8878 90.2552 73.6354 90.8154 73.6354 91.3702C73.6354 92.0097 74.1612 92.5487 75.1233 92.5487C75.5524 92.5835 75.982 92.4883 76.3568 92.2754C76.7316 92.0626 77.0345 91.7418 77.2263 91.3544C77.426 90.9158 77.4418 90.7308 77.4418 89.5735C76.9161 89.6528 76.2326 89.7532 75.3599 89.9381Z" fill="#052147"/>
<path d="M82.7202 81.5779V93.4524H81.4321V81.5779H82.7202Z" fill="#052147"/>
<path d="M91.8052 88.4215V93.4524H90.2805V81.5779H95.3855C96.0177 81.5462 96.651 81.614 97.2624 81.7787C97.8927 82.0203 98.4294 82.4585 98.7937 83.0292C99.158 83.5999 99.3307 84.2729 99.2865 84.9495C99.2865 86.2442 98.6819 87.7609 97.1099 88.2471C96.4924 88.407 95.8539 88.4694 95.2172 88.432L91.8052 88.4215ZM91.8052 87.0263H95.1016C96.0059 87.0263 96.6262 87.0263 97.1572 86.4979C97.547 86.0653 97.751 85.4955 97.725 84.9125C97.7411 84.6291 97.6937 84.3458 97.5863 84.0833C97.4789 83.8208 97.3143 83.5859 97.1047 83.3958C96.6285 83.0417 96.0377 82.8796 95.4486 82.9414H91.7999L91.8052 87.0263Z" fill="#052147"/>
<path d="M102.231 85.5308V86.9788C102.486 86.4853 102.878 86.0765 103.36 85.8018C103.841 85.5271 104.391 85.3981 104.943 85.4304V86.8784C104.769 86.8587 104.593 86.8481 104.418 86.8467C104.058 86.8265 103.699 86.903 103.379 87.0684C103.058 87.2337 102.787 87.4818 102.593 87.7873C102.301 88.4114 102.185 89.1042 102.257 89.7902V93.4577H100.916V85.5308H102.231Z" fill="#052147"/>
<path d="M109.928 93.6902C107.199 93.6902 106.048 91.6398 106.048 89.5524C106.048 87.7873 106.92 85.2824 109.98 85.2824C112.609 85.2824 113.797 87.317 113.781 89.5101C113.76 91.8881 112.335 93.6902 109.928 93.6902ZM112.236 88.3739C111.936 86.7885 110.916 86.3552 110.012 86.3552C108.219 86.3552 107.504 87.7503 107.504 89.5682C107.504 91.2329 108.193 92.6121 109.912 92.6121C112.136 92.6121 112.304 90.2922 112.32 89.4837C112.337 89.1117 112.308 88.739 112.236 88.3739Z" fill="#052147"/>
<path d="M115.853 85.5308H117.172V86.667C117.383 86.3928 117.631 86.1491 117.908 85.943C118.524 85.5288 119.244 85.3013 119.985 85.2877C121.694 85.2877 123.534 86.6511 123.534 89.5154C123.534 91.7666 122.33 93.706 119.853 93.706C119.35 93.7283 118.848 93.6335 118.386 93.4292C117.925 93.2248 117.517 92.9163 117.193 92.5276V97.2203H115.874L115.853 85.5308ZM117.172 89.6158C117.172 91.3333 118.024 92.5064 119.633 92.5064C120.119 92.5232 120.601 92.4004 121.021 92.1524C121.457 91.867 122.161 91.0955 122.161 89.4784C122.161 87.5971 121.11 86.4662 119.601 86.5349C118.092 86.6036 117.172 87.819 117.172 89.6158Z" fill="#052147"/>
<path d="M132.603 91.0162C132.397 91.8011 131.932 92.4926 131.285 92.9782C130.637 93.4638 129.846 93.7147 129.038 93.6902C126.693 93.6902 125.174 92.1048 125.174 89.4202C125.174 86.4239 127.314 85.2824 128.991 85.2824C129.807 85.2607 130.603 85.5318 131.238 86.047C131.873 86.5621 132.305 87.2878 132.456 88.0938C132.567 88.6253 132.618 89.1678 132.608 89.7109H126.615C126.583 91.0373 127.282 92.6861 129.159 92.6861C130.347 92.6861 131.015 91.8934 131.262 90.8365L132.603 91.0162ZM131.147 88.7438C131.031 86.6564 129.538 86.3023 128.886 86.3023C127.75 86.3023 126.783 87.1426 126.641 88.7438H131.147Z" fill="#052147"/>
<path d="M135.999 85.5308V86.9788C136.255 86.4853 136.647 86.0765 137.128 85.8018C137.609 85.5271 138.159 85.3981 138.712 85.4304V86.8784C138.537 86.8587 138.362 86.8481 138.186 86.8467C137.826 86.8265 137.468 86.903 137.147 87.0684C136.826 87.2337 136.555 87.4818 136.362 87.7873C136.069 88.4114 135.953 89.1042 136.025 89.7902V93.4577H134.685V85.5308H135.999Z" fill="#052147"/>
<path d="M142.056 85.5308H143.496V86.667H142.056V91.2064C142.056 92.1471 142.056 92.554 142.623 92.554C142.919 92.5309 143.211 92.4688 143.491 92.369V93.4788C143.065 93.5539 142.635 93.5981 142.203 93.6109C140.662 93.6109 140.662 92.8552 140.678 91.8089V86.667H139.427V85.5572H140.683V83.0523H142.056V85.5308Z" fill="#052147"/>
<path d="M151.477 85.5308L148.165 94.9003C147.597 96.4857 147.213 97.3735 145.736 97.3735C145.322 97.373 144.911 97.3107 144.516 97.1886V95.9942C144.792 96.0791 145.079 96.1236 145.368 96.1264C146.34 96.1264 146.556 95.5556 146.945 94.4617L147.282 93.5052L144.579 85.5308H146.004L147.981 91.8194L150.084 85.5308H151.477Z" fill="#052147"/>
<path d="M169.289 89.1454C169.009 90.4777 168.272 91.6688 167.208 92.511C166.143 93.3532 164.818 93.7929 163.464 93.7536C159.563 93.7536 157.681 90.8101 157.681 87.5125C157.681 84.2149 159.605 81.2714 163.674 81.2714C167.743 81.2714 168.763 84.1145 169.047 84.9072L167.47 85.2454C167.336 84.7563 167.095 84.3032 166.765 83.919C166.386 83.4699 165.91 83.1127 165.374 82.8739C164.838 82.6351 164.255 82.5209 163.669 82.5397C163.051 82.5253 162.437 82.6524 161.875 82.9115C161.313 83.1706 160.817 83.5549 160.425 84.0353C159.722 85.0227 159.374 86.2207 159.437 87.4332C159.437 90.3767 160.924 92.4483 163.643 92.4483C165.399 92.4483 167.191 91.4548 167.559 88.9499L169.289 89.1454Z" fill="#052147"/>
<path d="M174.315 93.6902C171.587 93.6902 170.435 91.6398 170.435 89.5524C170.435 87.7873 171.308 85.2824 174.368 85.2824C176.996 85.2824 178.185 87.317 178.169 89.5101C178.148 91.8881 176.723 93.6902 174.315 93.6902ZM176.649 88.3739C176.35 86.7885 175.33 86.3552 174.426 86.3552C172.633 86.3552 171.918 87.7503 171.918 89.5682C171.918 91.2329 172.606 92.6121 174.326 92.6121C176.55 92.6121 176.718 90.2922 176.734 89.4837C176.751 89.1117 176.722 88.739 176.649 88.3739Z" fill="#052147"/>
<path d="M180.256 85.5308H181.576V90.0544C181.554 90.4192 181.564 90.7853 181.607 91.1483C181.628 91.3348 181.686 91.5153 181.776 91.6793C181.867 91.8433 181.99 91.9875 182.136 92.1035C182.283 92.2196 182.451 92.3051 182.631 92.3553C182.811 92.4054 182.999 92.419 183.184 92.3955C183.517 92.4102 183.849 92.3499 184.155 92.2192C184.462 92.0884 184.736 91.8905 184.956 91.6398C185.44 91.069 185.44 90.4455 185.44 89.5259V85.5572H186.76V93.4841H185.44V92.2739C185.139 92.7116 184.737 93.0689 184.268 93.3148C183.799 93.5607 183.277 93.6878 182.748 93.6849C182.387 93.7061 182.026 93.6443 181.693 93.5041C181.36 93.364 181.062 93.1493 180.824 92.8764C180.256 92.2211 180.256 91.5288 180.256 90.2024V85.5308Z" fill="#052147"/>
<path d="M190.645 85.5308V86.667C190.891 86.2314 191.249 85.8705 191.682 85.6223C192.115 85.374 192.607 85.2475 193.105 85.256C193.676 85.2302 194.239 85.3944 194.708 85.723C195.176 86.0517 195.524 86.5265 195.697 87.0739C195.816 87.6094 195.86 88.159 195.829 88.7068V93.4312H194.525V88.9235C194.561 88.4849 194.533 88.0432 194.441 87.6129C194.315 87.2715 194.083 86.9802 193.778 86.7829C193.474 86.5856 193.114 86.493 192.753 86.519C192.474 86.511 192.197 86.5609 191.938 86.6655C191.679 86.77 191.445 86.927 191.249 87.1267C191.027 87.362 190.86 87.6436 190.759 87.9515C190.658 88.2594 190.626 88.5859 190.666 88.9076V93.4312H189.325V85.5044L190.645 85.5308Z" fill="#052147"/>
<path d="M200.955 89.954C199.682 89.6528 198.126 89.2987 198.126 87.6499C198.126 86.2019 199.346 85.293 201.17 85.293C202.679 85.293 204.282 86.017 204.551 87.8824L203.11 88.0674C203.135 87.8229 203.096 87.5762 202.996 87.3518C202.896 87.1274 202.74 86.9332 202.542 86.7885C202.1 86.4659 201.564 86.3005 201.018 86.3182C199.966 86.3182 199.44 86.9418 199.44 87.4808C199.44 88.2365 200.292 88.4743 201.333 88.728L202.085 88.9129C203.021 89.1296 204.714 89.5365 204.714 91.2011C204.714 92.4959 203.573 93.706 201.401 93.706C200.541 93.7417 199.69 93.5191 198.957 93.0666C198.623 92.8103 198.346 92.4865 198.144 92.1161C197.942 91.7456 197.819 91.3367 197.784 90.9158L199.288 90.678C199.255 90.9641 199.291 91.2539 199.393 91.5233C199.494 91.7926 199.659 92.0337 199.871 92.2263C200.325 92.5651 200.886 92.7267 201.449 92.6808C202.621 92.6808 203.305 92.2263 203.305 91.3702C203.305 90.5141 202.616 90.3133 201.664 90.1072L200.955 89.954Z" fill="#052147"/>
<path d="M213.704 91.0162C213.497 91.8011 213.033 92.4926 212.386 92.9782C211.738 93.4638 210.947 93.7147 210.139 93.6902C207.794 93.6902 206.275 92.1048 206.275 89.4202C206.275 86.4239 208.415 85.2824 210.092 85.2824C210.908 85.2607 211.704 85.5318 212.339 86.047C212.974 86.5621 213.406 87.2878 213.557 88.0938C213.668 88.6253 213.719 89.1678 213.709 89.7109H207.716C207.684 91.0373 208.383 92.6861 210.26 92.6861C211.448 92.6861 212.116 91.8934 212.363 90.8365L213.704 91.0162ZM212.247 88.7438C212.132 86.6564 210.639 86.3023 209.987 86.3023C208.851 86.3023 207.884 87.1426 207.742 88.7438H212.247Z" fill="#052147"/>
<path d="M217.063 81.5779V93.4524H215.775V81.5779H217.063Z" fill="#052147"/>
<path d="M259.543 17.4866V52.7876C259.543 70.2742 256.915 80.5527 247.257 89.2987C242.42 93.743 237.588 96.38 233.719 97.4898L231.921 93.3308C239.66 89.7215 243.666 83.6072 245.18 75.5588C246.284 68.6202 246.563 60.4238 246.563 48.9087V17.4866C246.563 5.82888 245.459 4.85652 234.271 4.02156V0H259.543V17.4866Z" fill="#052147"/>
<path d="M288.89 17.4866V68.2978C288.89 85.7897 286.261 96.0629 276.598 104.809C271.761 109.248 266.93 111.885 263.066 112.995L261.294 108.836C269.028 105.226 273.034 99.1227 274.553 91.069C275.657 84.1251 275.936 75.934 275.936 64.4136V17.4866C275.936 5.82888 274.832 4.85652 263.644 4.02156V0H288.916L288.89 17.4866Z" fill="#052147"/>
<path d="M299.3 48.449C307.586 48.449 318.5 43.8672 318.5 25.9578C318.5 10.8281 309.247 4.57644 298.332 4.57644C297.912 4.57644 297.502 4.57644 297.107 4.60286C296.582 4.60286 296.056 4.66628 295.62 4.71912V0H300.546C310.488 0 318.363 1.66464 323.889 5.69148C329.414 9.85573 333.005 16.3822 333.005 25.5403C333.005 43.5872 319.473 52.3384 305.94 54.003C304.005 54.2296 302.052 54.2633 300.109 54.1034C299.289 53.9978 298.501 53.8339 298.501 53.8339L299.3 48.449Z" fill="#052147"/>
</g>
<defs>
<clipPath id="clip0_5_2">
<rect width="333" height="113" fill="white"/>
</clipPath>
</defs>
</svg>
