<svg width="41" height="48" viewBox="0 0 41 48" fill="none" xmlns="http://www.w3.org/2000/svg">
<path d="M11.4203 2.50153C12.2486 2.63406 13.0769 2.75003 13.9218 2.89913C14.5816 3.02991 15.2626 3.00677 15.9119 2.83151C16.5613 2.65624 17.1615 2.33356 17.6658 1.88857C18.2125 1.44128 18.7426 0.97742 19.3225 0.546692C20.2668 -0.182231 20.6643 -0.182231 21.6252 0.546692C22.0891 0.894587 22.5364 1.27562 22.9671 1.65664C23.5635 2.22405 24.2957 2.6287 25.0934 2.83176C25.8912 3.03483 26.7277 3.0295 27.5229 2.81629C28.1689 2.6672 28.8482 2.6175 29.5108 2.5181C29.8085 2.45978 30.1172 2.51387 30.3773 2.66992C30.6374 2.82598 30.8304 3.07291 30.919 3.36299C31.184 4.00908 31.4491 4.67173 31.6645 5.33439C31.8897 6.10009 32.3035 6.79703 32.8679 7.36141C33.4323 7.92579 34.1292 8.33956 34.8949 8.56485C35.541 8.78021 36.1871 9.04527 36.8166 9.29377C37.1266 9.38309 37.3913 9.58657 37.5573 9.86323C37.7233 10.1399 37.7783 10.4692 37.7112 10.7847C37.6118 11.5137 37.4958 12.2426 37.3633 12.9715C37.1971 13.695 37.2082 14.4479 37.3957 15.1661C37.5832 15.8844 37.9415 16.5467 38.4401 17.0966C38.8874 17.6101 39.3347 18.1402 39.7489 18.7532C39.9029 18.8854 40.0265 19.0493 40.1113 19.2338C40.196 19.4182 40.2399 19.6188 40.2399 19.8217C40.2399 20.0247 40.196 20.2253 40.1113 20.4097C40.0265 20.5941 39.9029 20.7581 39.7489 20.8903C39.4272 21.331 39.0787 21.7515 38.7052 22.1493C38.0635 22.7851 37.6072 23.5837 37.3853 24.4594C37.1635 25.3351 37.1845 26.2546 37.4461 27.1193C37.567 27.7215 37.6555 28.3298 37.7112 28.9416C37.7541 29.1969 37.7064 29.4592 37.5763 29.6831C37.4462 29.907 37.2419 30.0783 36.9989 30.1675C36.3796 30.4545 35.7433 30.7034 35.0937 30.913C34.2567 31.14 33.4937 31.5821 32.8805 32.1953C32.2673 32.8085 31.8252 33.5715 31.5982 34.4085C31.4097 35.0132 31.1828 35.6053 30.919 36.1811C30.8718 36.34 30.7933 36.4878 30.6881 36.6158C30.583 36.7439 30.4532 36.8497 30.3066 36.9268C30.1599 37.004 29.9993 37.0511 29.8342 37.0653C29.6691 37.0795 29.5028 37.0605 29.3452 37.0094L26.678 36.6118C26.1196 36.5253 25.5493 36.5573 25.0042 36.7057C24.459 36.8542 23.9512 37.1157 23.5138 37.4733C22.8511 37.9868 22.2382 38.5335 21.5755 39.0305C21.4371 39.1888 21.2665 39.3156 21.075 39.4025C20.8836 39.4895 20.6758 39.5344 20.4655 39.5344C20.2553 39.5344 20.0475 39.4895 19.8561 39.4025C19.6646 39.3156 19.494 39.1888 19.3556 39.0305C18.9827 38.7622 18.6285 38.4689 18.2953 38.1525C17.6274 37.4526 16.7764 36.9543 15.8393 36.7141C14.9021 36.474 13.9163 36.5017 12.9941 36.794C12.5297 36.899 12.0595 36.9764 11.5859 37.026C11.2652 37.1181 10.921 37.0791 10.629 36.9175C10.337 36.756 10.1211 36.4852 10.0287 36.1645C9.74189 35.5395 9.49294 34.8978 9.28321 34.2428C9.06114 33.4529 8.63979 32.7333 8.0596 32.1531C7.4794 31.5729 6.75982 31.1516 5.96992 30.9295C5.40666 30.7473 4.8434 30.5319 4.31328 30.3C3.30272 29.8693 3.08736 29.4883 3.25302 28.4114C3.35242 27.7819 3.45182 27.1524 3.56779 26.5394C3.72252 25.79 3.69008 25.0139 3.47337 24.2799C3.25665 23.546 2.86232 22.8768 2.3253 22.3316C1.84488 21.7849 1.38102 21.2382 0.966857 20.6749C0.732132 20.4363 0.600586 20.115 0.600586 19.7803C0.600586 19.4456 0.732132 19.1243 0.966857 18.8857C1.30836 18.3954 1.68485 17.9303 2.09337 17.4942C2.73179 16.8559 3.18816 16.0586 3.41533 15.1849C3.6425 14.3112 3.63222 13.3926 3.38556 12.5242C3.25302 11.9775 3.20333 11.4143 3.12049 10.8676C3.05411 10.5498 3.1114 10.2186 3.2807 9.94159C3.45 9.66456 3.71855 9.4625 4.03165 9.3766C4.62804 9.12811 5.241 8.87961 5.85395 8.68081C6.64386 8.45875 7.36343 8.0374 7.94363 7.4572C8.52383 6.877 8.94518 6.15743 9.16724 5.36752C9.36604 4.738 9.6311 4.10848 9.8796 3.49552C9.91072 3.32662 9.97607 3.16588 10.0716 3.02318C10.1672 2.88048 10.2909 2.75884 10.4352 2.66573C10.5795 2.57263 10.7414 2.51003 10.9108 2.48179C11.0802 2.45355 11.2536 2.46027 11.4203 2.50153ZM20.449 5.66572C17.6649 5.66254 14.9422 6.48375 12.6242 8.02581C10.3062 9.56786 8.49668 11.7617 7.42378 14.3307C6.35087 16.8998 6.06263 19.729 6.5954 22.4616C7.12817 25.1942 8.4581 27.7079 10.4175 29.6858C12.3769 31.6636 14.878 33.017 17.6055 33.5754C20.333 34.1337 23.1648 33.872 25.7438 32.8232C28.3228 31.7744 30.5335 29.9855 32.0972 27.682C33.6609 25.3786 34.5076 22.6637 34.5305 19.8797C34.5458 18.02 34.1929 16.1756 33.4923 14.4529C32.7917 12.7301 31.7572 11.1629 30.4483 9.84173C29.1394 8.52052 27.582 7.47134 25.8659 6.75463C24.1498 6.03792 22.3088 5.66784 20.449 5.66572Z" fill="#0D54B5"/>
<path d="M33.9011 34.5576L35.5578 39.9085L37.7777 46.9492C38.0262 47.7279 37.7777 47.9929 37.0156 47.9929H27.523C27.2974 48.0217 27.0695 47.9618 26.8872 47.8258C26.7049 47.6898 26.5824 47.4884 26.5456 47.264C25.8609 44.9116 25.1209 42.5647 24.3257 40.2233C24.2616 40.074 24.253 39.9067 24.3017 39.7517C24.3503 39.5967 24.4529 39.4642 24.5908 39.3784C24.943 39.0994 25.3568 38.9086 25.7978 38.8222C26.2387 38.7357 26.694 38.756 27.1255 38.8814C28.1439 39.0537 29.174 39.1479 30.2068 39.163C30.7233 39.144 31.2237 38.978 31.6492 38.6846C32.0746 38.3911 32.4076 37.9824 32.6089 37.5064C33.0231 36.7443 33.3047 35.8497 33.6526 35.0877L33.9011 34.5576Z" fill="#0D54B5"/>
<path d="M6.96439 34.541C7.21288 35.2037 7.39511 35.7338 7.61048 36.1977C7.76948 36.6055 7.95202 37.0038 8.15717 37.3904C8.47724 38.0255 8.99312 38.5406 9.62857 38.8599C10.264 39.1791 10.9853 39.2854 11.6858 39.163C12.6135 39.0637 13.5247 38.9146 14.4524 38.7489C14.8376 38.7058 15.2274 38.7572 15.5882 38.8987C15.949 39.0401 16.2699 39.2673 16.5232 39.5606C16.5555 39.6278 16.5723 39.7014 16.5723 39.776C16.5723 39.8506 16.5555 39.9242 16.5232 39.9914C15.7446 42.4763 14.966 44.9613 14.1708 47.4297C14.1318 47.5844 14.0383 47.7199 13.9074 47.8112C13.7765 47.9025 13.6171 47.9435 13.4584 47.9267H3.51857C2.87248 47.9267 2.70681 47.6119 2.92218 46.9161L5.75504 37.9206L6.96439 34.541Z" fill="#0D54B5"/>
<path d="M32.2944 19.7969C32.2846 22.1382 31.5811 24.424 30.2729 26.3657C28.9646 28.3074 27.1103 29.8179 24.9441 30.7063C22.7779 31.5947 20.397 31.8212 18.1021 31.3572C15.8073 30.8933 13.7014 29.7596 12.0505 28.0994C10.3995 26.4392 9.27764 24.3271 8.82649 22.0296C8.37533 19.7322 8.61515 17.3526 9.51565 15.1914C10.4161 13.0302 11.9369 11.1843 13.8859 9.88696C15.8349 8.5896 18.1247 7.89892 20.466 7.90217C23.6105 7.91533 26.6215 9.17485 28.8388 11.4046C31.0561 13.6343 32.2988 16.6523 32.2944 19.7969ZM24.8726 26.5063C25.3531 26.5063 25.5519 26.1915 25.4525 25.7111C25.1543 24.3692 24.8561 23.0273 24.5247 21.702C24.472 21.5651 24.4627 21.4153 24.4983 21.273C24.5339 21.1306 24.6125 21.0028 24.7235 20.9068C25.6347 19.9957 26.5293 19.0845 27.4073 18.1402C27.5006 18.0444 27.5724 17.9299 27.6181 17.8042C27.6638 17.6786 27.6823 17.5446 27.6724 17.4113C27.6724 17.2456 27.2913 17.08 27.076 17.0303C25.8335 16.7983 24.5744 16.5995 23.3154 16.4339C23.1684 16.4236 23.028 16.369 22.9127 16.2774C22.7973 16.1857 22.7125 16.0612 22.6693 15.9203C22.1392 14.7607 21.5925 13.5845 21.0127 12.4414C20.8967 12.2094 20.6151 11.8947 20.3997 11.8947C20.1843 11.8947 19.9027 12.1929 19.7867 12.4248C19.1903 13.601 18.6602 14.8104 18.1301 16.0032C18.0757 16.1006 18.0022 16.1861 17.9139 16.2544C17.8257 16.3227 17.7245 16.3725 17.6165 16.4008C16.3575 16.6327 15.0819 16.7983 13.8063 17.0303C13.5743 17.0303 13.243 17.2291 13.1933 17.3947C13.1801 17.5269 13.1955 17.6604 13.2383 17.7862C13.2812 17.912 13.3506 18.027 13.4418 18.1237C14.3364 19.0845 15.2641 19.9957 16.1587 20.9565C16.2342 21.0511 16.2894 21.1602 16.3208 21.2771C16.3521 21.394 16.359 21.5161 16.3409 21.6357C16.0759 22.9445 15.7445 24.2367 15.4795 25.5454C15.4795 25.8105 15.4795 26.2412 15.5954 26.3406C15.731 26.4009 15.8778 26.432 16.0262 26.432C16.1745 26.432 16.3213 26.4009 16.4569 26.3406C17.6497 25.7774 18.8259 25.1644 19.9855 24.5349C20.1247 24.4483 20.2854 24.4023 20.4494 24.4023C20.6134 24.4023 20.774 24.4483 20.9133 24.5349C22.0729 25.1644 23.2491 25.7442 24.4419 26.3406L24.8726 26.5063Z" fill="#0D54B5"/>
</svg>
