<svg width="48" height="41" viewBox="0 0 48 41" fill="none" xmlns="http://www.w3.org/2000/svg">
<g clip-path="url(#clip0_436_5027)">
<path d="M0 37.3031V22.2039C0.597054 21.5126 1.02128 21.3869 1.57119 21.7954C2.38598 22.3587 3.36262 22.6401 4.35221 22.5967H20.0642C20.0642 22.8166 20.0642 22.9738 20.0642 23.1466C20.0642 23.9322 20.0642 24.7178 20.0642 25.4877C20.0434 25.6411 20.0584 25.7973 20.1079 25.944C20.1574 26.0907 20.2401 26.224 20.3496 26.3335C20.4591 26.443 20.5924 26.5257 20.7391 26.5752C20.8858 26.6247 21.042 26.6397 21.1954 26.6189H26.8674C27.0167 26.6361 27.168 26.6196 27.3101 26.5707C27.4521 26.5217 27.5815 26.4416 27.6885 26.336C27.7955 26.2305 27.8775 26.1024 27.9285 25.961C27.9794 25.8196 27.9981 25.6686 27.983 25.5191C27.983 24.7178 27.983 23.9479 27.983 23.1309C27.983 22.9738 27.983 22.8009 27.983 22.5967H43.6949C44.6369 22.6297 45.5639 22.3539 46.3345 21.8111C46.4896 21.6791 46.6821 21.599 46.885 21.5821C47.0879 21.5652 47.291 21.6123 47.4658 21.7168C47.6335 21.8146 47.7699 21.9582 47.859 22.1307C47.948 22.3032 47.986 22.4976 47.9686 22.691C47.9686 27.3417 47.9686 31.9977 47.9686 36.6589C47.9754 37.4782 47.7163 38.2776 47.2301 38.9371C46.8201 39.5022 46.2737 39.9542 45.6418 40.2509C45.0098 40.5477 44.313 40.6794 43.6164 40.634H4.3365H3.6766C2.8689 40.5805 2.09701 40.2807 1.46492 39.775C0.832828 39.2694 0.370914 38.5821 0.141408 37.8058C0.125696 37.6173 0 37.4602 0 37.3031Z" fill="#0D54B5"/>
<path d="M0 17.2389V9.91715C0.173958 8.90555 0.72808 7.99873 1.54889 7.3824C2.3697 6.76606 3.39508 6.48685 4.41506 6.60193H13.9836C13.9836 5.95774 13.9836 5.3764 13.9836 4.79506C13.9941 4.39262 14.0467 3.99239 14.1408 3.60095C14.3697 2.69941 14.9063 1.90613 15.6579 1.35819C16.4095 0.810254 17.3289 0.542066 18.2573 0.599968H29.7427C30.1169 0.590538 30.491 0.622151 30.8583 0.694239C31.7466 0.89046 32.5418 1.38318 33.1129 2.09137C33.684 2.79956 33.9971 3.68103 34.0007 4.5908C34.0007 5.23499 34.0007 5.89489 34.0007 6.58622H34.6606C37.8029 6.58622 40.9453 6.58622 44.1663 6.58622C44.6842 6.59619 45.1948 6.70972 45.6681 6.92013C46.1414 7.13054 46.5678 7.43357 46.9221 7.81135C47.2765 8.18913 47.5517 8.63403 47.7314 9.11982C47.9111 9.60561 47.9917 10.1225 47.9686 10.6399C47.9686 12.5568 47.9686 14.4789 47.9686 16.4062C47.9954 16.9587 47.9065 17.5108 47.7078 18.027C47.509 18.5432 47.2047 19.0123 46.8143 19.4042C46.4238 19.7961 45.9559 20.1022 45.4404 20.3029C44.925 20.5036 44.3733 20.5946 43.8206 20.5699H27.983C27.983 20.2242 27.983 19.9571 27.983 19.6743C27.9986 19.5253 27.9801 19.3748 27.9291 19.234C27.8781 19.0932 27.7958 18.9658 27.6884 18.8614C27.581 18.7571 27.4513 18.6784 27.3091 18.6314C27.1669 18.5844 27.0159 18.5703 26.8674 18.5901H21.1011C20.9562 18.5707 20.8087 18.5841 20.6697 18.6294C20.5307 18.6747 20.4036 18.7508 20.298 18.8519C20.1923 18.953 20.1108 19.0766 20.0594 19.2135C20.0081 19.3505 19.9882 19.4972 20.0013 19.6428C20.0013 19.9414 20.0013 20.2242 20.0013 20.5384H19.6242H3.91228C3.12642 20.5249 2.36254 20.2768 1.71865 19.8261C1.07476 19.3754 0.580232 18.7426 0.298527 18.0088C0.172831 17.8046 0.0942717 17.5217 0 17.2389ZM18.0216 4.66936V6.57051H29.9784V4.63794L18.0216 4.66936Z" fill="#0D54B5"/>
</g>
<defs>
<clipPath id="clip0_436_5027">
<rect width="48" height="40.0183" fill="white" transform="translate(0 0.599976)"/>
</clipPath>
</defs>
</svg>
