<svg width="51" height="48" viewBox="0 0 51 48" fill="none" xmlns="http://www.w3.org/2000/svg">
<path d="M49.9926 35.1426H41.791C41.791 34.2478 41.791 33.3697 41.791 32.4915C41.8118 31.433 41.7453 30.3745 41.5922 29.3269C41.3985 28.3525 40.9882 27.4341 40.3916 26.6397C39.7951 25.8453 39.0276 25.1951 38.1459 24.7373L33.3906 22.1194C34.36 20.9888 35.0807 19.667 35.506 18.2398C35.9313 16.8125 36.0517 15.3118 35.8594 13.835C36.8701 13.835 37.8642 14.0338 38.8418 14.0173C40.2012 13.9683 41.5227 13.5564 42.6692 12.8243C42.8927 12.7357 43.1416 12.7357 43.3651 12.8243C44.558 13.2385 45.7344 13.6693 46.9108 14.1167C47.8258 14.4414 48.6163 15.044 49.1719 15.8402C49.7274 16.6364 50.0202 17.5863 50.0092 18.5571C50.0092 23.9034 50.0092 29.2496 50.0092 34.5958C50.0092 34.7946 49.9926 34.9437 49.9926 35.1426Z" fill="#0D54B5"/>
<path d="M14.9989 13.6859C14.7566 15.2024 14.8585 16.754 15.2972 18.2258C15.7151 19.6562 16.4198 20.9866 17.3683 22.136L14.4024 23.7929C13.7065 24.174 13.0106 24.5219 12.3479 24.9362C11.3411 25.5501 10.511 26.4149 9.93887 27.446C9.3667 28.477 9.07208 29.639 9.08383 30.8181C9.08383 32.243 9.08383 33.668 9.08383 35.126H0.799394C0.799394 34.9272 0.799394 34.7449 0.799394 34.5461C0.799394 29.1888 0.799394 23.8481 0.799394 18.524C0.774184 17.5463 1.05864 16.5856 1.61211 15.7791C2.16559 14.9727 2.95977 14.3619 3.8812 14.0338C5.07416 13.581 6.25607 13.1447 7.42694 12.7249C7.61824 12.6475 7.83212 12.6475 8.02342 12.7249C8.99918 13.3403 10.0927 13.7452 11.234 13.9135C12.3752 14.0818 13.5391 14.01 14.651 13.7025L14.9989 13.6859Z" fill="#0D54B5"/>
<path d="M32.2807 24.174C34.0868 25.1847 35.8596 26.0794 37.5496 27.1398C38.1457 27.5127 38.6346 28.034 38.9686 28.6527C39.3027 29.2713 39.4703 29.9661 39.4551 30.669C39.4551 36.3687 39.4551 42.0518 39.4551 47.7515C39.4551 47.7515 39.4551 47.9006 39.4551 48H26.5811L32.2807 24.174Z" fill="#0D54B5"/>
<path d="M18.5275 24.1906L24.2272 48.0497H11.3697C11.3697 47.9006 11.3697 47.7515 11.3697 47.5858C11.3697 42.0628 11.3697 36.4957 11.3697 30.8844C11.3432 30.1096 11.5261 29.342 11.8994 28.6625C12.2727 27.9831 12.8224 27.417 13.4905 27.0238C15.0977 26.0131 16.7877 25.1515 18.5275 24.1906Z" fill="#0D54B5"/>
<path d="M25.3871 7.02519C27.0291 7.00877 28.6388 7.48066 30.0121 8.38092C31.3853 9.28119 32.46 10.5692 33.0998 12.0815C33.7395 13.5938 33.9154 15.262 33.6052 16.8745C33.295 18.4869 32.5126 19.9708 31.3573 21.1377C30.2021 22.3046 28.7261 23.1019 27.1169 23.4283C25.5077 23.7547 23.8377 23.5956 22.3191 22.9711C20.8005 22.3465 19.5017 21.2848 18.5877 19.9207C17.6737 18.5566 17.1856 16.9516 17.1855 15.3096C17.1854 13.1267 18.0469 11.032 19.5826 9.48075C21.1184 7.92947 23.2044 7.04702 25.3871 7.02519Z" fill="#0D54B5"/>
<path d="M38.3109 5.12597e-05C39.7387 0.058402 41.0961 0.636006 42.1282 1.62439C43.1602 2.61278 43.796 3.94395 43.916 5.36792C44.036 6.79189 43.6321 8.21069 42.78 9.35788C41.9279 10.5051 40.6863 11.3017 39.2884 11.5983C37.8512 11.8617 36.3681 11.546 35.1628 10.7201C34.9806 10.5759 34.8238 10.4023 34.6988 10.2065C34.1521 9.47744 33.6881 8.68214 33.042 8.00281C32.6518 7.53824 32.4351 6.95257 32.4289 6.34593C32.3622 5.53485 32.4651 4.71877 32.7309 3.94958C32.9967 3.1804 33.4196 2.47495 33.9728 1.87809C34.5261 1.28124 35.1974 0.806034 35.9443 0.48271C36.6911 0.159387 37.4971 -0.0049843 38.3109 5.12597e-05Z" fill="#0D54B5"/>
<path d="M12.5304 1.74482e-05C13.395 0.00189646 14.2484 0.195995 15.0288 0.568263C15.8092 0.940531 16.497 1.48165 17.0425 2.15246C17.5881 2.82327 17.9776 3.60698 18.183 4.44687C18.3884 5.28675 18.4045 6.16179 18.23 7.00865C18.1257 7.3521 17.957 7.67259 17.733 7.95307C17.2193 8.69867 16.6891 9.44427 16.0761 10.1733C15.8986 10.443 15.6741 10.6787 15.4133 10.8692C14.3998 11.4918 13.2181 11.7847 12.0311 11.7076C10.8441 11.6304 9.71022 11.187 8.7858 10.4384C7.83401 9.67414 7.14437 8.63197 6.81302 7.45715C6.48166 6.28233 6.52509 5.0334 6.93726 3.88444C7.34943 2.73548 8.10979 1.74373 9.11237 1.04744C10.115 0.351142 11.3098 -0.0150096 12.5304 1.74482e-05Z" fill="#0D54B5"/>
<path d="M25.3542 42.8471C25.0062 41.4056 24.6583 39.9807 24.3269 38.5392C24.2502 38.2021 24.2113 37.8576 24.2109 37.5119C24.2109 34.4743 24.2109 31.4367 24.2109 28.399C24.2109 27.4712 24.6417 26.9741 25.4205 26.9741C26.1992 26.9741 26.6134 27.4878 26.6134 28.4156C26.6134 31.514 26.6134 34.6124 26.6134 37.6942C26.4871 38.8169 26.2597 39.926 25.9341 41.0079C25.8015 41.621 25.6359 42.2175 25.4867 42.8305L25.3542 42.8471Z" fill="#0D54B5"/>
</svg>
