<svg width="47" height="47" viewBox="0 0 47 47" fill="none" xmlns="http://www.w3.org/2000/svg">
<path d="M24.6508 0.305354C27.6134 0.67207 30.3461 2.08955 32.3523 4.30018C34.3584 6.51081 35.5048 9.36785 35.5832 12.352C35.5289 13.9647 35.2084 15.5572 34.6345 17.0653C32.6992 22.0363 30.294 26.8114 27.4517 31.3256C26.9547 32.1839 26.4729 33.0422 25.9458 33.8554C25.6409 34.3151 25.2269 34.6922 24.7409 34.953C24.2548 35.2139 23.7117 35.3504 23.16 35.3504C22.6084 35.3504 22.0653 35.2139 21.5792 34.953C21.0932 34.6922 20.6792 34.3151 20.3742 33.8554C16.6931 28.2876 13.5997 22.353 11.1435 16.1467C8.68897 9.4006 13.4625 2.35329 20.1032 0.591463C21.586 0.201303 23.1308 0.104119 24.6508 0.305354ZM23.0396 6.82562C21.7159 6.85694 20.4565 7.40286 19.5287 8.34751C18.6009 9.29216 18.0778 10.5612 18.0703 11.8852C18.0703 13.2231 18.6018 14.5062 19.5478 15.4523C20.4939 16.3983 21.777 16.9298 23.1149 16.9298C24.4528 16.9298 25.7359 16.3983 26.6819 15.4523C27.6279 14.5062 28.1594 13.2231 28.1594 11.8852C28.1555 11.2168 28.0199 10.5558 27.7605 9.93975C27.5011 9.32375 27.1228 8.76487 26.6474 8.29504C26.172 7.82521 25.6087 7.45363 24.9896 7.2015C24.3706 6.94938 23.708 6.82165 23.0396 6.82562Z" fill="#0D54B5"/>
<path d="M46.0485 38.5234C45.3859 41.5351 41.7267 43.041 39.212 43.9294C33.1195 46.0022 26.6708 46.8218 20.2535 46.3387C14.4862 45.9924 7.22805 45.2696 2.45456 41.6857C1.29171 40.8704 0.454372 39.6703 0.0903949 38.2976C-0.481822 35.6925 1.68658 33.9608 3.61405 32.6808C3.76517 32.5437 3.94445 32.4412 4.13932 32.3806C4.3342 32.32 4.53996 32.3027 4.74222 32.33C4.94447 32.3572 5.13832 32.4283 5.31021 32.5384C5.48209 32.6484 5.62785 32.7947 5.73728 32.9669C6.18903 33.7048 5.93304 34.4727 5.04459 34.9998C4.34781 35.4083 3.71381 35.9155 3.1623 36.5056C2.97028 36.7214 2.83744 36.9832 2.77674 37.2656C2.71605 37.548 2.72956 37.8413 2.81596 38.1169C2.9377 38.3885 3.11762 38.6301 3.343 38.8246C4.45691 39.7946 5.73066 40.5639 7.10759 41.0984C10.6203 42.4228 14.3199 43.185 18.0701 43.3572C23.6937 43.8952 29.3673 43.5291 34.8752 42.273C37.3146 41.6857 40.8985 40.7671 42.6152 38.8999C42.8278 38.7099 42.999 38.4781 43.1182 38.219C43.2373 37.96 43.3019 37.6792 43.3079 37.3941C43.2326 36.5056 42.2688 35.8882 41.5912 35.3612C41.3202 35.1805 41.019 35.0299 40.7479 34.8341C40.4501 34.653 40.2356 34.3617 40.151 34.0234C40.0665 33.6852 40.1186 33.3272 40.2962 33.0271C40.373 32.8594 40.4847 32.71 40.6239 32.5889C40.7632 32.4678 40.9267 32.3779 41.1035 32.3251C41.2803 32.2724 41.4663 32.258 41.6491 32.283C41.8319 32.308 42.0073 32.3717 42.1634 32.47C44.2565 33.6144 46.5153 35.4817 46.1238 38.1771C46.0937 38.2976 46.0686 38.413 46.0485 38.5234Z" fill="#0D54B5"/>
<path d="M16.7304 33.3283C16.64 33.1627 10.6318 33.9608 11.9117 36.0238C12.3275 36.5238 12.9108 36.8556 13.5531 36.9574C19.893 38.5811 26.5467 38.5241 32.8579 36.7918C33.3587 36.7057 33.8124 36.4441 34.1378 36.0539C35.463 34.006 30.298 33.5392 29.3192 33.2982C29.7559 32.5453 30.1474 31.7924 30.569 31.19C30.6594 31.0395 30.9003 30.8588 31.0358 30.8889C33.2946 31.3707 37.7067 32.1387 38.2488 34.9998C38.7156 37.5146 35.734 38.6891 33.8517 39.2463C27.5515 41.0928 20.8898 41.3361 14.4716 39.954C12.7193 39.5902 11.0298 38.9712 9.45721 38.1169C9.06781 37.9361 8.7249 37.6686 8.45471 37.335C8.18452 37.0013 7.9942 36.6103 7.8983 36.1919C7.8024 35.7734 7.80346 35.3385 7.90139 34.9205C7.99933 34.5025 8.19155 34.1124 8.46336 33.7801C9.78849 31.9881 12.8002 31.5816 14.7879 30.9642C14.9062 30.9515 15.0259 30.9682 15.1362 31.0128C15.2465 31.0575 15.3441 31.1287 15.4203 31.2202C15.9022 31.8225 16.2786 32.5152 16.7304 33.3283Z" fill="#0D54B5"/>
</svg>
